<svg width="1135" height="148" viewBox="0 0 1135 148" fill="none" xmlns="http://www.w3.org/2000/svg">
<rect x="0.631836" y="0.570312" width="1133.88" height="147.355" fill="black"/>
<path d="M144.686 83.2858C143.978 89.4218 141.814 94.6531 138.196 98.9798C134.577 103.306 129.66 106.61 123.446 108.892C117.231 111.173 109.836 112.314 101.262 112.314C94.1031 112.314 87.5344 111.488 81.5558 109.836C75.6558 108.184 70.5424 105.706 66.2158 102.402C61.9678 99.0978 58.6638 95.0071 56.3038 90.1298C53.9438 85.1738 52.7638 79.3918 52.7638 72.7838C52.7638 66.1758 53.9438 60.3938 56.3038 55.4378C58.6638 50.4818 61.9678 46.3518 66.2158 43.0478C70.5424 39.6651 75.6558 37.1478 81.5558 35.4958C87.5344 33.7651 94.1031 32.8998 101.262 32.8998C109.836 32.8998 117.231 34.0798 123.446 36.4398C129.739 38.7998 134.695 42.1824 138.314 46.5878C141.932 50.9144 144.056 56.1851 144.686 62.3998L129.11 62.3998C128.087 59.0958 126.356 56.2638 123.918 53.9038C121.558 51.4651 118.49 49.6164 114.714 48.3578C110.938 47.0991 106.454 46.4698 101.262 46.4698C94.8111 46.4698 89.1471 47.4924 84.2698 49.5378C79.3924 51.5044 75.6164 54.4544 72.9418 58.3878C70.2671 62.2424 68.9298 67.0411 68.9298 72.7838C68.9298 78.4478 70.2671 83.2071 72.9418 87.0618C75.6164 90.9165 79.3924 93.8665 84.2698 95.9118C89.1471 97.8785 94.8111 98.8618 101.262 98.8618C106.454 98.8618 110.898 98.2325 114.596 96.9738C118.372 95.7151 121.44 93.9058 123.8 91.5458C126.238 89.1858 128.008 86.4325 129.11 83.2858H144.686ZM205.428 112.314C195.28 112.314 186.587 110.74 179.35 107.594C172.191 104.368 166.685 99.8058 162.83 93.9058C159.054 88.0058 157.166 80.9258 157.166 72.6658C157.166 64.3271 159.054 57.2078 162.83 51.3078C166.685 45.4078 172.191 40.8844 179.35 37.7378C186.587 34.5124 195.28 32.8998 205.428 32.8998C215.655 32.8998 224.347 34.5124 231.506 37.7378C238.665 40.8844 244.132 45.4078 247.908 51.3078C251.763 57.2078 253.69 64.3271 253.69 72.6658C253.69 80.9258 251.763 88.0058 247.908 93.9058C244.132 99.8058 238.665 104.368 231.506 107.594C224.347 110.74 215.655 112.314 205.428 112.314ZM205.428 98.7438C211.721 98.7438 217.228 97.7998 221.948 95.9118C226.747 94.0238 230.483 91.1525 233.158 87.2978C235.911 83.4431 237.288 78.5658 237.288 72.6658C237.288 66.7658 235.911 61.8884 233.158 58.0338C230.483 54.1791 226.747 51.3078 221.948 49.4198C217.228 47.4531 211.721 46.4698 205.428 46.4698C199.213 46.4698 193.667 47.4531 188.79 49.4198C183.913 51.3078 180.097 54.1791 177.344 58.0338C174.591 61.8884 173.214 66.7658 173.214 72.6658C173.214 78.5658 174.591 83.4431 177.344 87.2978C180.097 91.1525 183.913 94.0238 188.79 95.9118C193.667 97.7998 199.213 98.7438 205.428 98.7438ZM328.364 102.992H320.93L364.826 34.4338L380.52 34.4338V110.78H364.826V55.3198L368.602 56.3818L333.556 110.78H315.974L280.928 56.6178L284.704 55.5558V110.78H269.01V34.4338H284.704L328.364 102.992ZM400.891 34.4338H416.585V110.78H400.891V34.4338ZM514.314 95.2038L509.358 97.2098V34.4338H525.052V110.78H509.358L447.644 50.4818L452.6 48.4758V110.78H436.906V34.4338H452.6L514.314 95.2038ZM587.164 112.314C580.084 112.314 573.672 111.488 567.93 109.836C562.266 108.184 557.349 105.706 553.18 102.402C549.089 99.0978 545.942 95.0071 543.74 90.1298C541.537 85.2524 540.436 79.6278 540.436 73.2558C540.436 66.8051 541.576 61.1018 543.858 56.1458C546.218 51.1111 549.522 46.8631 553.77 43.4018C558.096 39.9404 563.21 37.3445 569.11 35.6138C575.088 33.8044 581.696 32.8998 588.934 32.8998C597.508 32.8998 604.903 34.1191 611.118 36.5578C617.332 38.9178 622.21 42.2611 625.75 46.5878C629.368 50.9144 631.414 56.0671 631.886 62.0458H616.782C615.759 58.8991 614.068 56.1851 611.708 53.9038C609.426 51.5438 606.398 49.7345 602.622 48.4758C598.846 47.1385 594.283 46.4698 588.934 46.4698C582.09 46.4698 576.229 47.5711 571.352 49.7738C566.553 51.9764 562.895 55.0838 560.378 59.0958C557.86 63.1078 556.602 67.8278 556.602 73.2558C556.602 78.5264 557.703 83.0891 559.906 86.9438C562.108 90.7198 565.491 93.6305 570.054 95.6758C574.695 97.7211 580.595 98.7438 587.754 98.7438C593.26 98.7438 598.098 98.0358 602.268 96.6198C606.516 95.1251 610.056 93.1585 612.888 90.7198C615.72 88.2025 617.726 85.4098 618.906 82.3418L625.042 80.0998C624.019 90.2478 620.164 98.1538 613.478 103.818C606.87 109.482 598.098 112.314 587.164 112.314ZM621.03 110.78C621.03 108.341 621.187 105.548 621.502 102.402C621.816 99.1765 622.21 95.9511 622.682 92.7258C623.154 89.4218 623.586 86.3931 623.98 83.6398H589.052V73.6098H634.6V110.78H621.03ZM674.516 85.0558H690.446C690.761 87.7305 691.98 90.1691 694.104 92.3718C696.307 94.4958 699.178 96.1871 702.718 97.4458C706.258 98.6258 710.231 99.2158 714.636 99.2158C718.648 99.2158 721.952 98.7831 724.548 97.9178C727.144 97.0525 729.071 95.8331 730.33 94.2598C731.589 92.6865 732.218 90.7985 732.218 88.5958C732.218 86.4718 731.431 84.8591 729.858 83.7578C728.285 82.5778 725.807 81.6338 722.424 80.9258C719.041 80.1391 714.597 79.3525 709.09 78.5658C704.763 77.9365 700.673 77.0711 696.818 75.9698C692.963 74.7898 689.541 73.2951 686.552 71.4858C683.641 69.6765 681.321 67.4738 679.59 64.8778C677.938 62.2031 677.112 59.0565 677.112 55.4378C677.112 50.9538 678.371 47.0204 680.888 43.6378C683.484 40.2551 687.299 37.6198 692.334 35.7318C697.369 33.8438 703.544 32.8998 710.86 32.8998C721.873 32.8998 730.33 35.2598 736.23 39.9798C742.209 44.6211 745.119 51.0325 744.962 59.2138H729.622C729.307 54.5724 727.341 51.2291 723.722 49.1838C720.182 47.1384 715.698 46.1158 710.27 46.1158C705.235 46.1158 701.066 46.8631 697.762 48.3578C694.537 49.8524 692.924 52.4091 692.924 56.0278C692.924 57.4438 693.317 58.7025 694.104 59.8038C694.891 60.8264 696.228 61.7311 698.116 62.5178C700.004 63.3044 702.561 64.0518 705.786 64.7598C709.011 65.4678 713.023 66.1758 717.822 66.8838C722.306 67.5131 726.357 68.3784 729.976 69.4798C733.673 70.5024 736.82 71.8791 739.416 73.6098C742.091 75.2618 744.136 77.3858 745.552 79.9818C746.968 82.5778 747.676 85.7638 747.676 89.5398C747.676 94.1811 746.457 98.2325 744.018 101.694C741.658 105.076 737.961 107.712 732.926 109.6C727.97 111.488 721.519 112.432 713.574 112.432C707.91 112.432 702.915 111.842 698.588 110.662C694.261 109.403 690.525 107.751 687.378 105.706C684.231 103.66 681.675 101.418 679.708 98.9798C677.741 96.5411 676.325 94.1025 675.46 91.6638C674.673 89.2251 674.359 87.0225 674.516 85.0558ZM806.952 112.314C796.804 112.314 788.111 110.74 780.874 107.594C773.715 104.368 768.208 99.8058 764.354 93.9058C760.578 88.0058 758.69 80.9258 758.69 72.6658C758.69 64.3271 760.578 57.2078 764.354 51.3078C768.208 45.4078 773.715 40.8844 780.874 37.7378C788.111 34.5124 796.804 32.8998 806.952 32.8998C817.178 32.8998 825.871 34.5124 833.03 37.7378C840.188 40.8844 845.656 45.4078 849.432 51.3078C853.286 57.2078 855.214 64.3271 855.214 72.6658C855.214 80.9258 853.286 88.0058 849.432 93.9058C845.656 99.8058 840.188 104.368 833.03 107.594C825.871 110.74 817.178 112.314 806.952 112.314ZM806.952 98.7438C813.245 98.7438 818.752 97.7998 823.472 95.9118C828.27 94.0238 832.007 91.1525 834.682 87.2978C837.435 83.4431 838.812 78.5658 838.812 72.6658C838.812 66.7658 837.435 61.8884 834.682 58.0338C832.007 54.1791 828.27 51.3078 823.472 49.4198C818.752 47.4531 813.245 46.4698 806.952 46.4698C800.737 46.4698 795.191 47.4531 790.314 49.4198C785.436 51.3078 781.621 54.1791 778.868 58.0338C776.114 61.8884 774.738 66.7658 774.738 72.6658C774.738 78.5658 776.114 83.4431 778.868 87.2978C781.621 91.1525 785.436 94.0238 790.314 95.9118C795.191 97.7998 800.737 98.7438 806.952 98.7438ZM915.963 112.314C905.815 112.314 897.123 110.74 889.885 107.594C882.727 104.368 877.22 99.8058 873.365 93.9058C869.589 88.0058 867.701 80.9258 867.701 72.6658C867.701 64.3271 869.589 57.2078 873.365 51.3078C877.22 45.4078 882.727 40.8844 889.885 37.7378C897.123 34.5124 905.815 32.8998 915.963 32.8998C926.19 32.8998 934.883 34.5124 942.041 37.7378C949.2 40.8844 954.667 45.4078 958.443 51.3078C962.298 57.2078 964.225 64.3271 964.225 72.6658C964.225 80.9258 962.298 88.0058 958.443 93.9058C954.667 99.8058 949.2 104.368 942.041 107.594C934.883 110.74 926.19 112.314 915.963 112.314ZM915.963 98.7438C922.257 98.7438 927.763 97.7998 932.483 95.9118C937.282 94.0238 941.019 91.1525 943.693 87.2978C946.447 83.4431 947.823 78.5658 947.823 72.6658C947.823 66.7658 946.447 61.8884 943.693 58.0338C941.019 54.1791 937.282 51.3078 932.483 49.4198C927.763 47.4531 922.257 46.4698 915.963 46.4698C909.749 46.4698 904.203 47.4531 899.325 49.4198C894.448 51.3078 890.633 54.1791 887.879 58.0338C885.126 61.8884 883.749 66.7658 883.749 72.6658C883.749 78.5658 885.126 83.4431 887.879 87.2978C890.633 91.1525 894.448 94.0238 899.325 95.9118C904.203 97.7998 909.749 98.7438 915.963 98.7438ZM1056.95 95.2038L1052 97.2098V34.4338H1067.69V110.78H1052L990.283 50.4818L995.239 48.4758V110.78H979.545V34.4338H995.239L1056.95 95.2038Z" fill="#FC66C5"/>
</svg>
