<svg width="1141" height="377" viewBox="0 0 1141 377" fill="none" xmlns="http://www.w3.org/2000/svg">
<rect x="0.549805" y="232.108" width="1133.88" height="147.355" transform="rotate(-11.8044 0.549805 232.108)" fill="black"/>
<path d="M158.479 283.605C159.041 289.756 157.994 295.319 155.337 300.295C152.679 305.27 148.543 309.51 142.926 313.014C137.31 316.519 130.305 319.148 121.911 320.902C114.904 322.367 108.305 322.902 102.115 322.508C96.002 322.098 90.4899 320.718 85.5788 318.369C80.7447 316.004 76.6738 312.676 73.3659 308.385C70.042 304.016 67.7041 298.598 66.3523 292.13C65.0005 285.661 64.9727 279.76 66.269 274.426C67.5652 269.092 69.9545 264.374 73.4367 260.271C76.9799 256.074 81.4701 252.564 86.9074 249.74C92.4056 246.823 98.6583 244.632 105.666 243.168C114.059 241.414 121.539 241.056 128.105 242.095C134.748 243.117 140.291 245.415 144.734 248.986C149.161 252.481 152.319 257.206 154.206 263.161L138.959 266.347C137.283 263.322 135.009 260.904 132.139 259.093C129.33 257.188 125.949 256.007 121.995 255.547C118.042 255.087 113.524 255.389 108.442 256.451C102.127 257.77 96.7923 259.93 92.4366 262.93C88.0647 265.853 84.972 269.513 83.1586 273.91C81.329 278.23 81.0016 283.201 82.1764 288.822C83.3351 294.367 85.6178 298.752 89.0244 301.978C92.4311 305.204 96.7307 307.319 101.923 308.323C107.1 309.251 112.845 309.054 119.159 307.735C124.242 306.673 128.464 305.147 131.825 303.159C135.264 301.154 137.897 298.756 139.724 295.963C141.628 293.154 142.798 290.097 143.232 286.791L158.479 283.605ZM223.875 299.593C213.941 301.669 205.111 301.907 197.383 300.308C189.716 298.615 183.392 295.275 178.412 290.288C173.509 285.286 170.212 278.742 168.523 270.656C166.817 262.494 167.208 255.139 169.698 248.591C172.264 242.028 176.729 236.473 183.092 231.929C189.517 227.291 197.696 223.934 207.629 221.858C217.639 219.766 226.478 219.567 234.145 221.259C241.796 222.875 248.073 226.184 252.976 231.187C257.956 236.174 261.299 242.748 263.005 250.91C264.695 258.996 264.257 266.32 261.691 272.884C259.201 279.432 254.783 285.016 248.436 289.638C242.072 294.182 233.885 297.501 223.875 299.593ZM221.099 286.31C227.259 285.022 232.456 282.972 236.69 280.158C241.001 277.329 244.071 273.753 245.901 269.433C247.807 265.097 248.157 260.041 246.95 254.266C245.743 248.491 243.398 243.998 239.914 240.788C236.508 237.562 232.263 235.516 227.179 234.649C222.157 233.69 216.565 233.854 210.405 235.141C204.322 236.413 199.094 238.51 194.722 241.433C190.334 244.278 187.187 247.87 185.281 252.206C183.374 256.542 183.024 261.598 184.231 267.373C185.438 273.149 187.783 277.641 191.267 280.851C194.751 284.061 199.073 286.091 204.233 286.941C209.394 287.792 215.015 287.581 221.099 286.31ZM342.304 265.319L335.027 266.84L363.97 190.752L379.332 187.541L394.95 262.273L379.588 265.483L368.242 211.196L372.156 211.463L348.979 271.88L331.769 275.477L286.384 229.63L289.863 227.818L301.16 281.874L285.798 285.084L270.18 210.353L285.542 207.142L342.304 265.319ZM399.272 183.374L414.634 180.164L430.252 254.895L414.89 258.105L399.272 183.374ZM522.728 219.656L518.288 222.633L505.445 161.185L520.808 157.974L536.426 232.706L521.064 235.916L448.32 189.518L452.76 186.541L465.506 247.527L450.144 250.738L434.526 176.006L449.888 172.796L522.728 219.656ZM597.537 221.501C590.607 222.949 584.162 223.452 578.203 223.01C572.321 222.552 567.001 221.132 562.244 218.751C557.564 216.353 553.647 212.993 550.493 208.669C547.34 204.346 545.111 199.065 543.807 192.828C542.488 186.514 542.438 180.698 543.657 175.38C544.937 169.969 547.302 165.135 550.752 160.878C554.279 156.605 558.753 153.017 564.175 150.116C569.657 147.122 575.94 144.885 583.024 143.404C591.417 141.65 598.905 141.331 605.487 142.447C612.053 143.486 617.511 145.76 621.862 149.271C626.289 152.766 629.345 157.392 631.03 163.147L616.246 166.237C614.601 163.366 612.39 161.056 609.613 159.305C606.897 157.462 603.563 156.31 599.609 155.851C595.639 155.314 591.036 155.593 585.8 156.687C579.101 158.087 573.589 160.364 569.266 163.518C565.019 166.656 562.074 170.446 560.431 174.888C558.788 179.33 558.521 184.208 559.631 189.521C560.71 194.68 562.721 198.921 565.666 202.244C568.594 205.489 572.501 207.646 577.385 208.715C582.347 209.768 588.331 209.562 595.339 208.097C600.729 206.971 605.32 205.288 609.111 203.049C612.964 200.717 616.027 198.068 618.3 195.101C620.557 192.058 621.949 188.914 622.477 185.669L628.024 182.22C629.099 192.362 626.943 200.889 621.557 207.802C616.247 214.698 608.241 219.264 597.537 221.501ZM630.373 213.071C629.874 210.684 629.457 207.919 629.121 204.774C628.77 201.553 628.495 198.315 628.297 195.061C628.083 191.731 627.887 188.678 627.709 185.902L593.519 193.047L591.468 183.229L636.052 173.912L643.656 210.295L630.373 213.071ZM677.466 176.95L693.059 173.691C693.914 176.245 695.607 178.382 698.136 180.104C700.727 181.732 703.884 182.801 707.606 183.308C711.313 183.739 715.322 183.504 719.634 182.603C723.561 181.782 726.707 180.683 729.071 179.305C731.435 177.927 733.072 176.339 733.983 174.541C734.893 172.744 735.122 170.767 734.672 168.611C734.237 166.532 733.137 165.114 731.372 164.358C729.591 163.525 726.972 163.108 723.516 163.107C720.044 163.028 715.532 163.168 709.981 163.524C705.617 163.793 701.436 163.783 697.438 163.494C693.423 163.127 689.768 162.364 686.471 161.205C683.252 160.029 680.53 158.348 678.305 156.16C676.141 153.88 674.688 150.969 673.948 147.427C673.031 143.038 673.458 138.93 675.23 135.104C677.079 131.262 680.275 127.902 684.817 125.024C689.359 122.146 695.211 119.958 702.372 118.462C713.152 116.209 721.913 116.789 728.654 120.202C735.455 123.522 739.616 129.203 741.136 137.243L726.12 140.381C724.863 135.902 722.254 133.032 718.293 131.77C714.409 130.492 709.811 130.409 704.498 131.519C699.57 132.549 695.641 134.133 692.713 136.272C689.862 138.395 688.806 141.228 689.546 144.77C689.836 146.156 690.479 147.308 691.474 148.225C692.453 149.065 693.947 149.677 695.956 150.061C697.965 150.444 700.621 150.653 703.923 150.686C707.225 150.719 711.297 150.592 716.139 150.303C720.657 150.002 724.799 150.02 728.567 150.358C732.395 150.602 735.757 151.306 738.652 152.469C741.608 153.539 744.045 155.2 745.962 157.451C747.879 159.703 749.224 162.676 749.996 166.373C750.946 170.916 750.581 175.131 748.902 179.018C747.284 182.812 744.204 186.148 739.662 189.026C735.197 191.888 729.076 194.131 721.298 195.757C715.754 196.915 710.744 197.36 706.267 197.09C701.775 196.743 697.779 195.89 694.28 194.532C690.782 193.173 687.821 191.502 685.397 189.517C682.973 187.532 681.088 185.435 679.742 183.225C678.473 180.999 677.714 178.907 677.466 176.95ZM812.677 176.539C802.744 178.615 793.913 178.853 786.185 177.253C778.518 175.561 772.194 172.221 767.214 167.234C762.311 162.232 759.015 155.688 757.325 147.602C755.619 139.44 756.011 132.085 758.5 125.537C761.066 118.974 765.531 113.419 771.894 108.875C778.319 104.237 786.498 100.88 796.431 98.8043C806.442 96.7122 815.28 96.5125 822.947 98.2052C830.598 99.8209 836.876 103.13 841.779 108.133C846.759 113.12 850.102 119.694 851.808 127.856C853.497 135.942 853.059 143.266 850.493 149.83C848.004 156.378 843.585 161.962 837.238 166.584C830.874 171.128 822.687 174.447 812.677 176.539ZM809.901 163.256C816.061 161.968 821.258 159.918 825.492 157.104C829.803 154.274 832.874 150.699 834.703 146.379C836.61 142.043 836.959 136.987 835.752 131.212C834.545 125.436 832.2 120.944 828.717 117.734C825.31 114.508 821.065 112.462 815.981 111.595C810.959 110.636 805.368 110.8 799.207 112.087C793.124 113.359 787.897 115.456 783.525 118.379C779.137 121.224 775.989 124.816 774.083 129.152C772.176 133.488 771.827 138.544 773.034 144.319C774.24 150.095 776.586 154.587 780.069 157.797C783.553 161.007 787.875 163.037 793.036 163.887C798.196 164.738 803.818 164.527 809.901 163.256ZM919.383 154.238C909.45 156.314 900.619 156.552 892.891 154.953C885.224 153.26 878.901 149.921 873.921 144.934C869.017 139.931 865.721 133.387 864.031 125.302C862.325 117.139 862.717 109.784 865.206 103.237C867.772 96.6729 872.237 91.1188 878.601 86.5742C885.025 81.9365 893.204 78.5797 903.138 76.5037C913.148 74.4116 921.987 74.2119 929.654 75.9046C937.305 77.5203 943.582 80.8295 948.485 85.8323C953.465 90.8189 956.808 97.3934 958.514 105.556C960.204 113.641 959.765 120.966 957.199 127.529C954.71 134.077 950.292 139.662 943.944 144.283C937.581 148.828 929.394 152.146 919.383 154.238ZM916.607 140.955C922.768 139.668 927.965 137.617 932.199 134.804C936.51 131.974 939.58 128.399 941.409 124.079C943.316 119.742 943.666 114.686 942.459 108.911C941.252 103.136 938.906 98.6433 935.423 95.4334C932.016 92.2074 927.771 90.1612 922.688 89.2948C917.665 88.3353 912.074 88.4993 905.914 89.7867C899.83 91.0581 894.603 93.1552 890.231 96.078C885.843 98.9238 882.696 102.515 880.789 106.851C878.883 111.188 878.533 116.244 879.74 122.019C880.947 127.794 883.292 132.287 886.776 135.496C890.259 138.706 894.581 140.736 899.742 141.587C904.902 142.437 910.524 142.227 916.607 140.955ZM1053.89 108.648L1049.45 111.625L1036.61 50.1768L1051.97 46.9662L1067.59 121.698L1052.23 124.908L979.482 78.5102L983.923 75.5328L996.669 136.519L981.307 139.73L965.688 64.9983L981.051 61.7878L1053.89 108.648Z" fill="#FC66C5"/>
</svg>
