<svg width="608" height="209" viewBox="0 0 608 209" fill="none" xmlns="http://www.w3.org/2000/svg">
<path d="M325.777 97.4429H304.504V57.371H304.009L287.189 97.4429H271.111L254.043 56.8763H253.466V97.4429H233.348V38.5718H265.999L278.944 71.6353H279.521L292.219 38.5718H325.777V97.4429Z" fill="white"/>
<path d="M367.391 50.9397C379.649 50.9397 388.581 53.001 394.188 57.1236C399.795 61.1913 402.598 67.2103 402.598 75.1807C402.598 83.0962 399.795 89.1152 394.188 93.2379C388.581 97.3055 379.649 99.3394 367.391 99.3394C355.133 99.3394 346.201 97.3055 340.594 93.2379C334.987 89.1152 332.184 83.0962 332.184 75.1807C332.184 67.2103 334.987 61.1913 340.594 57.1236C346.201 53.001 355.133 50.9397 367.391 50.9397ZM367.391 85.6522C376.351 85.6522 380.831 82.1617 380.831 75.1807C380.831 68.1448 376.351 64.6268 367.391 64.6268C358.431 64.6268 353.951 68.1448 353.951 75.1807C353.951 82.1617 358.431 85.6522 367.391 85.6522Z" fill="white"/>
<path d="M408.465 37.7473H429.408V97.4429H408.465V37.7473Z" fill="white"/>
<path d="M436.486 52.8361H457.429V97.4429H436.486V52.8361ZM436.321 37.4175H457.594V47.8065H436.321V37.4175Z" fill="white"/>
<path d="M506.888 65.9461C506.393 64.352 505.211 63.2251 503.342 62.5655C501.473 61.9059 498.807 61.5761 495.344 61.5761C491.772 61.5761 489.27 61.8509 487.841 62.4006C486.412 62.8953 485.698 63.6924 485.698 64.7917C485.698 65.6712 486.11 66.3034 486.934 66.6881C487.759 67.0179 489.27 67.2928 491.469 67.5127L513.979 69.2442C518.101 69.574 521.454 70.2336 524.038 71.223C526.621 72.2125 528.573 73.7241 529.892 75.7579C531.266 77.7368 531.953 80.4577 531.953 83.9207C531.953 88.1533 530.689 91.3964 528.161 93.6501C525.687 95.8489 522.004 97.333 517.112 98.1026C512.22 98.9271 505.596 99.3394 497.241 99.3394C489.27 99.3394 482.839 98.9271 477.947 98.1026C473.11 97.333 469.317 95.7939 466.569 93.4852C463.875 91.1765 462.418 87.796 462.199 83.3435H485.945C486.55 85.3224 487.731 86.6966 489.49 87.4662C491.304 88.1808 494.163 88.5381 498.065 88.5381C502.188 88.5381 505.019 88.2632 506.558 87.7135C508.097 87.1089 508.867 86.1744 508.867 84.9101C508.867 83.9207 508.454 83.2336 507.63 82.8488C506.86 82.4091 505.459 82.0793 503.425 81.8594L482.482 79.8805C476.106 79.2759 471.351 77.9567 468.218 75.9228C465.139 73.889 463.6 70.5359 463.6 65.8636C463.6 61.796 464.837 58.6902 467.311 56.5465C469.784 54.3477 473.302 52.8636 477.865 52.094C482.482 51.3245 488.446 50.9397 495.757 50.9397C503.177 50.9397 509.306 51.352 514.144 52.1765C519.036 52.946 522.856 54.4302 525.605 56.6289C528.408 58.8277 529.892 61.9334 530.057 65.9461H506.888Z" fill="white"/>
<path d="M607.207 75.1807C607.207 76.5 607.153 77.9841 607.043 79.6332H558.313C558.698 82.4915 559.962 84.6078 562.106 85.982C564.305 87.3562 567.603 88.0433 572 88.0433C575.958 88.0433 578.789 87.6036 580.493 86.7241C582.197 85.7896 583.296 84.7727 583.791 83.6734H606.63C606.191 88.4006 603.47 92.1935 598.467 95.0518C593.52 97.9102 584.698 99.3394 572 99.3394C559.632 99.3394 550.618 97.3055 544.956 93.2379C539.294 89.1152 536.463 83.0962 536.463 75.1807C536.463 67.2653 539.267 61.2463 544.873 57.1236C550.535 53.001 559.522 50.9397 571.835 50.9397C584.038 50.9397 592.971 53.001 598.632 57.1236C604.349 61.2463 607.207 67.2653 607.207 75.1807ZM571.835 62.2357C567.933 62.2357 564.909 62.7854 562.766 63.8848C560.677 64.9841 559.303 66.6881 558.643 68.9968H585.028C584.368 66.6881 582.966 64.9841 580.823 63.8848C578.734 62.7854 575.738 62.2357 571.835 62.2357Z" fill="white"/>
<path d="M284.221 110.233C292.851 110.233 299.035 111.909 302.773 115.262C306.511 118.56 308.379 123.7 308.379 130.681C308.379 137.717 306.511 142.884 302.773 146.182C299.035 149.425 292.851 151.047 284.221 151.047H254.62V169.104H233.348V110.233H284.221ZM277.954 137.277C282.682 137.277 285.045 135.243 285.045 131.176C285.045 129.087 284.468 127.548 283.314 126.558C282.16 125.569 280.373 125.074 277.954 125.074H254.62V137.277H277.954Z" fill="white"/>
<path d="M334.385 124.497V130.763H334.88C337.683 128.18 340.954 126.311 344.691 125.157C348.429 123.947 353.047 123.343 358.543 123.343C360.467 123.343 362.309 123.453 364.068 123.673V142.884C361.045 142.279 357.911 141.977 354.668 141.977C348.842 141.977 344.059 142.939 340.321 144.863C336.639 146.787 334.797 150.47 334.797 155.911V169.104H313.854V124.497H334.385Z" fill="white"/>
<path d="M369.333 124.497H390.275V169.104H369.333V124.497ZM369.168 109.078H390.44V119.467H369.168V109.078Z" fill="white"/>
<path d="M444.846 129.527V109.408H465.789V169.104H445.258V164.239H444.764C442.29 166.493 439.459 168.169 436.271 169.269C433.083 170.423 429.29 171 424.893 171C415.548 171 408.402 168.994 403.455 164.981C398.563 160.914 396.117 154.977 396.117 147.171C396.117 139.366 398.563 133.457 403.455 129.444C408.402 125.377 415.548 123.343 424.893 123.343C429.235 123.343 432.945 123.865 436.024 124.909C439.157 125.954 441.933 127.493 444.351 129.527H444.846ZM431.406 157.313C436.189 157.313 439.734 156.434 442.043 154.675C444.351 152.861 445.506 150.36 445.506 147.171C445.506 143.983 444.351 141.51 442.043 139.751C439.734 137.937 436.189 137.03 431.406 137.03C426.679 137.03 423.244 137.882 421.1 139.586C418.956 141.29 417.884 143.818 417.884 147.171C417.884 150.525 418.956 153.053 421.1 154.757C423.244 156.461 426.679 157.313 431.406 157.313Z" fill="white"/>
<path d="M542.389 146.842C542.389 148.161 542.334 149.645 542.224 151.294H493.494C493.879 154.152 495.143 156.269 497.287 157.643C499.486 159.017 502.784 159.704 507.182 159.704C511.139 159.704 513.97 159.265 515.674 158.385C517.378 157.451 518.478 156.434 518.972 155.334H541.812C541.372 160.062 538.651 163.854 533.649 166.713C528.702 169.571 519.879 171 507.182 171C494.814 171 485.799 168.966 480.137 164.899C474.475 160.776 471.645 154.757 471.645 146.842C471.645 138.926 474.448 132.907 480.055 128.785C485.716 124.662 494.704 122.601 507.017 122.601C519.22 122.601 528.152 124.662 533.814 128.785C539.53 132.907 542.389 138.926 542.389 146.842ZM507.017 133.897C503.114 133.897 500.091 134.446 497.947 135.546C495.858 136.645 494.484 138.349 493.824 140.658H520.209C519.549 138.349 518.148 136.645 516.004 135.546C513.915 134.446 510.919 133.897 507.017 133.897Z" fill="white"/>
<path d="M127.312 77.0769L132.03 69.8208L138.11 78.6318H147.23L145.447 87.5465L154.463 93.9733L147.23 98.5343L152.681 111.906L139.577 107.967L135.07 123.62L127.312 107.967L111.274 114.394L117.983 97.2904L104.67 88.9977L116.935 84.333L115.257 71.894L127.312 77.0769Z" fill="#43B66A"/>
<path fill-rule="evenodd" clip-rule="evenodd" d="M109.699 150.601L40.3338 178.381L68.5025 109.982L0.973022 75.89L70.434 57.5861L52.5727 4.96493L107.189 32.938L127.202 0.849854L149.318 42.2545L184.371 38.3182L177.917 74.0041L212.812 97.0908L183.143 114.948L202.538 163.252L158.708 148.405L139.011 208.598L109.704 150.606L109.699 150.601ZM118.056 128.474L77.4762 142.596L92.1725 102.259L52.3433 80.9503L92.2634 68.497L79.967 33.493L115.436 50.8139L128.894 26.8524L144.408 56.147L170.186 52.1777L164.679 78.359L190.328 94.7817L167.734 106.976L180.719 140.024L150.116 128.648L136.797 165.213L118.051 128.474H118.056Z" fill="#43B66A"/>
<path fill-rule="evenodd" clip-rule="evenodd" d="M123.128 113.738L99.009 121.183L107.041 97.2685L83.2896 84.1379L106.634 76.0676L98.5309 53.6064L121.058 64.1362L129.831 47.4314L140.244 67.1179L158.225 63.8164L153.96 81.9087L171.826 92.9935L155.676 100.951L164.057 122.57L143.614 114.556L134.889 136.519L123.128 113.733V113.738ZM128.65 98.5477L119.696 100.923L122.407 92.1093L113.562 87.0725L122.057 83.8322L118.716 74.8637L127.646 78.8188L131.227 71.5152L135.621 79.8017L143.571 78.0899L141.468 85.9626L149.347 90.6608L142.027 93.8871L145.412 102.71L136.835 99.1732L133.259 107.333L128.646 98.543L128.65 98.5477Z" fill="white"/>
<path d="M113.548 47.8986L127.875 25.8381L146.343 52.6258H174.043L168.631 79.7287L196.013 99.2679L174.043 113.135L190.6 153.789L150.8 141.813L137.109 189.401L113.548 141.813L64.8326 161.352L85.2101 109.353L44.7734 84.1408L82.0261 69.9591L76.9317 32.1411L113.548 47.8986Z" fill="black"/>
<path d="M124.944 71.6959L130.33 63.4033L137.272 73.4729H147.685L145.65 83.661L155.943 91.0059L147.685 96.2184L153.909 111.501L138.948 106.999L133.801 124.887L124.944 106.999L106.632 114.344L114.292 94.7968L99.0918 85.3195L113.095 79.9886L111.18 65.7726L124.944 71.6959Z" fill="black"/>
<path fill-rule="evenodd" clip-rule="evenodd" d="M109.607 150.454L40.3092 178.207L68.4504 109.875L0.986938 75.8165L70.38 57.5306L52.5362 4.9609L107.099 32.9066L127.092 0.849854L149.187 42.214L184.206 38.2815L177.758 73.9325L212.619 96.9967L182.978 114.836L202.355 163.093L158.567 148.26L138.889 208.394L109.611 150.459L109.607 150.454ZM117.955 128.349L77.4153 142.458L92.0972 102.16L52.3069 80.872L92.188 68.4308L79.9036 33.461L115.338 50.765L128.783 26.827L144.282 56.0929L170.035 52.1275L164.533 78.2832L190.157 94.6898L167.585 106.873L180.557 139.888L149.984 128.522L136.678 165.052L117.951 128.349H117.955Z" fill="white"/>
<path fill-rule="evenodd" clip-rule="evenodd" d="M123.006 113.629L98.9103 121.067L106.934 97.1757L83.2063 84.058L106.528 75.9956L98.4327 53.5564L120.938 64.076L129.702 47.3875L140.105 67.0547L158.068 63.7565L153.808 81.831L171.656 92.905L155.522 100.855L163.895 122.453L143.472 114.447L134.756 136.388L123.006 113.625V113.629ZM128.523 98.4537L119.577 100.826L122.285 92.0217L113.449 86.9897L121.936 83.7526L118.598 74.7929L127.52 78.7442L131.097 71.4476L135.486 79.7261L143.429 78.0159L141.328 85.8809L149.199 90.5746L141.886 93.7976L145.268 102.612L136.699 99.0786L133.127 107.23L128.518 98.449L128.523 98.4537Z" fill="white"/>
</svg>
