<svg width="1081" height="371" viewBox="0 0 1081 371" fill="none" xmlns="http://www.w3.org/2000/svg">
<path d="M578.835 172.477H540.938V101.089H540.057L510.092 172.477H481.449L451.043 100.208H450.015V172.477H414.174V67.5984H472.342L495.403 126.501H496.431L519.052 67.5984H578.835V172.477Z" fill="white"/>
<path d="M652.97 89.6317C674.808 89.6317 690.721 93.3039 700.709 100.648C710.697 107.895 715.692 118.618 715.692 132.817C715.692 146.918 710.697 157.641 700.709 164.985C690.721 172.232 674.808 175.855 652.97 175.855C631.133 175.855 615.22 172.232 605.232 164.985C595.243 157.641 590.249 146.918 590.249 132.817C590.249 118.618 595.243 107.895 605.232 100.648C615.22 93.3039 631.133 89.6317 652.97 89.6317ZM652.97 151.472C668.932 151.472 676.913 145.253 676.913 132.817C676.913 120.282 668.932 114.015 652.97 114.015C637.009 114.015 629.028 120.282 629.028 132.817C629.028 145.253 637.009 151.472 652.97 151.472Z" fill="white"/>
<path d="M726.144 66.1295H763.453V172.477H726.144V66.1295Z" fill="white"/>
<path d="M776.063 93.0101H813.372V172.477H776.063V93.0101ZM775.769 65.542H813.666V84.0499H775.769V65.542Z" fill="white"/>
<path d="M901.482 116.365C900.601 113.525 898.496 111.518 895.166 110.343C891.837 109.168 887.087 108.58 880.918 108.58C874.553 108.58 870.097 109.07 867.551 110.049C865.005 110.93 863.732 112.35 863.732 114.309C863.732 115.876 864.466 117.002 865.935 117.687C867.404 118.275 870.097 118.764 874.014 119.156L914.115 122.241C921.459 122.828 927.433 124.003 932.035 125.766C936.638 127.529 940.114 130.222 942.464 133.845C944.912 137.37 946.136 142.218 946.136 148.387C946.136 155.927 943.884 161.705 939.379 165.72C934.973 169.637 928.412 172.281 919.696 173.652C910.981 175.121 899.181 175.855 884.296 175.855C870.097 175.855 858.64 175.121 849.925 173.652C841.307 172.281 834.55 169.539 829.654 165.426C824.856 161.313 822.261 155.291 821.869 147.359H864.173C865.25 150.884 867.355 153.332 870.489 154.703C873.72 155.976 878.813 156.613 885.765 156.613C893.11 156.613 898.153 156.123 900.895 155.144C903.637 154.067 905.008 152.402 905.008 150.15C905.008 148.387 904.273 147.163 902.804 146.477C901.433 145.694 898.936 145.106 895.313 144.715L858.003 141.189C846.644 140.112 838.173 137.762 832.592 134.139C827.108 130.516 824.366 124.542 824.366 116.218C824.366 108.972 826.569 103.439 830.976 99.6201C835.383 95.703 841.65 93.0591 849.778 91.6881C858.003 90.3171 868.628 89.6317 881.652 89.6317C894.872 89.6317 905.791 90.3661 914.408 91.835C923.124 93.2059 929.93 95.8499 934.826 99.7669C939.82 103.684 942.464 109.217 942.758 116.365H901.482Z" fill="white"/>
<path d="M1080.2 132.817C1080.2 135.167 1080.1 137.811 1079.91 140.749H993.096C993.781 145.841 996.034 149.611 999.853 152.059C1003.77 154.507 1009.65 155.731 1017.48 155.731C1024.53 155.731 1029.57 154.948 1032.61 153.381C1035.64 151.716 1037.6 149.905 1038.48 147.946H1079.17C1078.39 156.368 1073.54 163.125 1064.63 168.217C1055.82 173.309 1040.1 175.855 1017.48 175.855C995.446 175.855 979.386 172.232 969.3 164.985C959.214 157.641 954.17 146.918 954.17 132.817C954.17 118.716 959.165 107.993 969.153 100.648C979.239 93.3039 995.25 89.6317 1017.19 89.6317C1038.92 89.6317 1054.84 93.3039 1064.92 100.648C1075.11 107.993 1080.2 118.716 1080.2 132.817ZM1017.19 109.755C1010.23 109.755 1004.85 110.735 1001.03 112.693C997.307 114.652 994.858 117.687 993.683 121.8H1040.69C1039.51 117.687 1037.02 114.652 1033.2 112.693C1029.48 110.735 1024.14 109.755 1017.19 109.755Z" fill="white"/>
<path d="M504.804 195.261C520.178 195.261 531.195 198.248 537.854 204.222C544.513 210.097 547.842 219.253 547.842 231.69C547.842 244.224 544.513 253.429 537.854 259.305C531.195 265.082 520.178 267.971 504.804 267.971H452.071V300.14H414.174V195.261H504.804ZM493.64 243.441C502.062 243.441 506.273 239.818 506.273 232.571C506.273 228.85 505.245 226.108 503.188 224.345C501.132 222.583 497.949 221.701 493.64 221.701H452.071V243.441H493.64Z" fill="#47D6FD"/>
<path d="M594.17 220.673V231.837H595.052C600.046 227.234 605.872 223.905 612.531 221.848C619.19 219.694 627.416 218.617 637.209 218.617C640.636 218.617 643.917 218.813 647.05 219.204V253.429C641.664 252.352 636.082 251.813 630.305 251.813C619.925 251.813 611.405 253.527 604.746 256.955C598.185 260.382 594.905 266.943 594.905 276.638V300.14H557.595V220.673H594.17Z" fill="#47D6FD"/>
<path d="M656.429 220.673H693.739V300.14H656.429V220.673ZM656.135 193.205H694.033V211.713H656.135V193.205Z" fill="#47D6FD"/>
<path d="M790.956 229.633V193.793H828.265V300.14H791.69V291.473H790.809C786.402 295.488 781.359 298.475 775.679 300.433C770 302.49 763.243 303.518 755.409 303.518C738.762 303.518 726.031 299.944 717.218 292.795C708.503 285.549 704.145 274.973 704.145 261.067C704.145 247.162 708.503 236.635 717.218 229.486C726.031 222.24 738.762 218.617 755.409 218.617C763.145 218.617 769.755 219.547 775.239 221.408C780.821 223.268 785.766 226.01 790.074 229.633H790.956ZM767.013 279.135C775.533 279.135 781.849 277.568 785.962 274.434C790.074 271.203 792.131 266.747 792.131 261.067C792.131 255.388 790.074 250.981 785.962 247.847C781.849 244.616 775.533 243 767.013 243C758.591 243 752.471 244.518 748.652 247.554C744.833 250.589 742.923 255.094 742.923 261.067C742.923 267.041 744.833 271.545 748.652 274.581C752.471 277.617 758.591 279.135 767.013 279.135Z" fill="#47D6FD"/>
<path d="M964.727 260.48C964.727 262.83 964.629 265.474 964.433 268.412H877.622C878.308 273.504 880.56 277.274 884.379 279.722C888.296 282.17 894.172 283.394 902.006 283.394C909.056 283.394 914.099 282.611 917.135 281.044C920.171 279.379 922.129 277.568 923.011 275.609H963.699C962.915 284.031 958.068 290.788 949.157 295.88C940.343 300.972 924.626 303.518 902.006 303.518C879.972 303.518 863.913 299.895 853.826 292.648C843.74 285.304 838.697 274.581 838.697 260.48C838.697 246.379 843.691 235.656 853.679 228.311C863.766 220.967 879.776 217.295 901.712 217.295C923.451 217.295 939.364 220.967 949.45 228.311C959.635 235.656 964.727 246.379 964.727 260.48ZM901.712 237.418C894.759 237.418 889.373 238.398 885.554 240.356C881.833 242.315 879.385 245.35 878.21 249.463H925.214C924.039 245.35 921.542 242.315 917.723 240.356C914.001 238.398 908.664 237.418 901.712 237.418Z" fill="#47D6FD"/>
<path d="M225.271 136.195L233.675 123.268L244.506 138.965H260.753L257.578 154.846L273.639 166.295L260.753 174.421L270.464 198.243L247.12 191.226L239.09 219.11L225.271 191.226L196.699 202.675L208.651 172.205L184.934 157.431L206.783 149.121L203.795 126.961L225.271 136.195Z" fill="#47D6FD"/>
<path fill-rule="evenodd" clip-rule="evenodd" d="M193.893 267.177L70.3191 316.667L120.501 194.814L0.19845 134.081L123.942 101.472L92.1227 7.72841L189.421 57.5621L225.073 0.397461L264.473 74.1594L326.92 67.1468L315.422 130.721L377.588 171.85L324.731 203.662L359.285 289.715L281.201 263.264L246.111 370.497L193.901 267.186L193.893 267.177ZM208.78 227.758L136.488 252.917L162.669 181.057L91.7139 143.096L162.831 120.91L140.925 58.5508L204.113 89.4078L228.089 46.7207L255.726 98.9087L301.65 91.8375L291.838 138.479L337.532 167.736L297.281 189.461L320.413 248.334L265.896 228.068L242.167 293.208L208.772 227.758H208.78Z" fill="#47D6FD"/>
<path fill-rule="evenodd" clip-rule="evenodd" d="M217.818 201.507L174.849 214.769L189.158 172.166L146.845 148.774L188.434 134.397L173.998 94.3825L214.13 113.141L229.759 83.3818L248.309 118.453L280.341 112.572L272.744 144.803L304.572 164.55L275.802 178.726L290.732 217.241L254.313 202.964L238.77 242.091L217.818 201.498V201.507ZM227.655 174.445L211.703 178.676L216.532 162.975L200.775 154.002L215.91 148.229L209.957 132.252L225.866 139.298L232.246 126.287L240.073 141.049L254.237 138L250.489 152.025L264.525 160.395L251.486 166.142L257.516 181.86L242.236 175.559L235.865 190.095L227.646 174.436L227.655 174.445Z" fill="white"/>
<path d="M200.751 84.2143L226.276 44.9138L259.175 92.6358H308.523L298.88 140.919L347.661 175.728L308.523 200.431L338.019 272.856L267.116 251.522L242.725 336.298L200.751 251.522L113.966 286.331L150.268 193.694L78.2305 148.779L144.596 123.515L135.52 56.1425L200.751 84.2143Z" fill="white"/>
<path d="M221.054 126.609L230.649 111.836L243.016 129.775H261.566L257.941 147.925L276.278 161.009L261.566 170.295L272.654 197.52L246.001 189.501L236.832 221.368L221.054 189.501L188.431 202.585L202.077 167.763L174.998 150.879L199.945 141.382L196.533 116.057L221.054 126.609Z" fill="#47D6FD"/>
<path fill-rule="evenodd" clip-rule="evenodd" d="M193.729 266.916L70.2761 316.358L120.409 194.624L0.223976 133.95L123.847 101.374L92.0583 7.72124L189.262 57.5062L224.879 0.397461L264.24 74.0872L326.626 67.0815L315.139 130.593L377.244 171.682L324.439 203.463L358.959 289.431L280.951 263.007L245.895 370.135L193.737 266.924L193.729 266.916ZM208.602 227.535L136.38 252.67L162.536 180.88L91.6499 142.956L162.697 120.792L140.813 58.4939L203.939 89.3207L227.891 46.6754L255.502 98.8123L301.381 91.748L291.579 138.344L337.228 167.572L297.016 189.276L320.125 248.092L265.661 227.845L241.956 292.922L208.593 227.535H208.602Z" fill="#47D6FD"/>
<path fill-rule="evenodd" clip-rule="evenodd" d="M217.6 201.313L174.674 214.563L188.968 172.001L146.697 148.632L188.245 134.269L173.823 94.2936L213.916 113.034L229.529 83.3037L248.061 118.341L280.062 112.465L272.473 144.664L304.27 164.393L275.527 178.555L290.443 217.032L254.06 202.769L238.531 241.857L217.6 201.304V201.313ZM227.428 174.278L211.491 178.504L216.315 162.819L200.574 153.855L215.694 148.088L209.746 132.126L225.641 139.165L232.014 126.167L239.833 140.915L253.983 137.868L250.239 151.879L264.262 160.241L251.235 165.983L257.259 181.685L241.994 175.391L235.63 189.913L227.419 174.269L227.428 174.278Z" fill="#FC66C5"/>
</svg>
