<svg width="1081" height="371" viewBox="0 0 1081 371" fill="none" xmlns="http://www.w3.org/2000/svg">
<path d="M578.945 172.563H541.048V101.175H540.166L510.201 172.563H481.558L451.152 100.294H450.124V172.563H414.283V67.6849H472.451L495.512 126.587H496.541L519.161 67.6849H578.945V172.563Z" fill="#FDF148"/>
<path d="M653.08 89.7181C674.917 89.7181 690.83 93.3903 700.818 100.735C710.807 107.981 715.801 118.704 715.801 132.903C715.801 147.004 710.807 157.727 700.818 165.072C690.83 172.318 674.917 175.941 653.08 175.941C631.242 175.941 615.33 172.318 605.341 165.072C595.353 157.727 590.359 147.004 590.359 132.903C590.359 118.704 595.353 107.981 605.341 100.735C615.33 93.3903 631.242 89.7181 653.08 89.7181ZM653.08 151.558C669.042 151.558 677.023 145.34 677.023 132.903C677.023 120.369 669.042 114.102 653.08 114.102C637.118 114.102 629.137 120.369 629.137 132.903C629.137 145.34 637.118 151.558 653.08 151.558Z" fill="#FDF148"/>
<path d="M726.253 66.216H763.563V172.563H726.253V66.216Z" fill="#FDF148"/>
<path d="M776.172 93.0965H813.482V172.563H776.172V93.0965ZM775.878 65.6284H813.775V84.1363H775.878V65.6284Z" fill="#FDF148"/>
<path d="M901.592 116.452C900.71 113.612 898.605 111.604 895.275 110.429C891.946 109.254 887.197 108.667 881.027 108.667C874.662 108.667 870.207 109.156 867.661 110.136C865.114 111.017 863.841 112.437 863.841 114.395C863.841 115.962 864.576 117.088 866.045 117.774C867.514 118.361 870.207 118.851 874.124 119.243L914.224 122.327C921.568 122.915 927.542 124.09 932.144 125.853C936.747 127.615 940.223 130.308 942.573 133.931C945.022 137.457 946.246 142.304 946.246 148.473C946.246 156.014 943.993 161.791 939.489 165.806C935.082 169.723 928.521 172.367 919.806 173.738C911.09 175.207 899.29 175.941 884.406 175.941C870.207 175.941 858.749 175.207 850.034 173.738C841.416 172.367 834.66 169.625 829.763 165.512C824.965 161.4 822.37 155.377 821.978 147.445H864.282C865.359 150.97 867.465 153.419 870.598 154.79C873.83 156.063 878.922 156.699 885.875 156.699C893.219 156.699 898.262 156.209 901.004 155.23C903.746 154.153 905.117 152.488 905.117 150.236C905.117 148.473 904.383 147.249 902.914 146.564C901.543 145.78 899.046 145.193 895.422 144.801L858.113 141.276C846.753 140.199 838.283 137.848 832.701 134.225C827.217 130.602 824.475 124.629 824.475 116.305C824.475 109.058 826.679 103.526 831.085 99.7065C835.492 95.7895 841.759 93.1455 849.887 91.7745C858.113 90.4036 868.738 89.7181 881.762 89.7181C894.982 89.7181 905.9 90.4525 914.518 91.9214C923.233 93.2924 930.039 95.9364 934.935 99.8534C939.929 103.77 942.573 109.303 942.867 116.452H901.592Z" fill="#FDF148"/>
<path d="M1080.31 132.903C1080.31 135.253 1080.21 137.897 1080.02 140.835H993.205C993.891 145.927 996.143 149.697 999.962 152.146C1003.88 154.594 1009.75 155.818 1017.59 155.818C1024.64 155.818 1029.68 155.034 1032.72 153.468C1035.75 151.803 1037.71 149.991 1038.59 148.033H1079.28C1078.5 156.454 1073.65 163.211 1064.74 168.303C1055.93 173.395 1040.21 175.941 1017.59 175.941C995.555 175.941 979.496 172.318 969.409 165.072C959.323 157.727 954.28 147.004 954.28 132.903C954.28 118.802 959.274 108.079 969.262 100.735C979.349 93.3903 995.36 89.7181 1017.29 89.7181C1039.03 89.7181 1054.95 93.3903 1065.03 100.735C1075.22 108.079 1080.31 118.802 1080.31 132.903ZM1017.29 109.842C1010.34 109.842 1004.96 110.821 1001.14 112.78C997.416 114.738 994.968 117.774 993.793 121.887H1040.8C1039.62 117.774 1037.12 114.738 1033.31 112.78C1029.58 110.821 1024.25 109.842 1017.29 109.842Z" fill="#FDF148"/>
<path d="M504.913 195.348C520.288 195.348 531.304 198.335 537.963 204.308C544.622 210.184 547.951 219.34 547.951 231.776C547.951 244.311 544.622 253.516 537.963 259.391C531.304 265.169 520.288 268.058 504.913 268.058H452.18V300.226H414.283V195.348H504.913ZM493.75 243.527C502.171 243.527 506.382 239.904 506.382 232.658C506.382 228.936 505.354 226.194 503.297 224.432C501.241 222.669 498.058 221.788 493.75 221.788H452.18V243.527H493.75Z" fill="#45159C"/>
<path d="M594.28 220.76V231.923H595.161C600.155 227.321 605.982 223.991 612.641 221.935C619.3 219.78 627.525 218.703 637.318 218.703C640.745 218.703 644.026 218.899 647.16 219.291V253.516C641.774 252.438 636.192 251.9 630.414 251.9C620.034 251.9 611.515 253.614 604.856 257.041C598.295 260.468 595.014 267.029 595.014 276.724V300.226H557.705V220.76H594.28Z" fill="#45159C"/>
<path d="M656.539 220.76H693.848V300.226H656.539V220.76ZM656.245 193.291H694.142V211.799H656.245V193.291Z" fill="#45159C"/>
<path d="M791.065 229.72V193.879H828.375V300.226H791.8V291.56H790.918C786.512 295.575 781.468 298.561 775.789 300.52C770.109 302.576 763.352 303.604 755.518 303.604C738.871 303.604 726.141 300.03 717.327 292.882C708.612 285.635 704.254 275.059 704.254 261.154C704.254 247.248 708.612 236.721 717.327 229.573C726.141 222.326 738.871 218.703 755.518 218.703C763.254 218.703 769.864 219.633 775.348 221.494C780.93 223.355 785.875 226.096 790.184 229.72H791.065ZM767.122 279.221C775.642 279.221 781.958 277.654 786.071 274.521C790.184 271.289 792.24 266.833 792.24 261.154C792.24 255.474 790.184 251.067 786.071 247.934C781.958 244.702 775.642 243.087 767.122 243.087C758.701 243.087 752.58 244.604 748.761 247.64C744.942 250.676 743.033 255.18 743.033 261.154C743.033 267.127 744.942 271.632 748.761 274.668C752.58 277.703 758.701 279.221 767.122 279.221Z" fill="#45159C"/>
<path d="M964.836 260.566C964.836 262.916 964.738 265.56 964.542 268.498H877.731C878.417 273.59 880.669 277.36 884.488 279.809C888.405 282.257 894.281 283.481 902.115 283.481C909.166 283.481 914.209 282.697 917.244 281.131C920.28 279.466 922.239 277.654 923.12 275.696H963.808C963.025 284.117 958.177 290.874 949.266 295.966C940.453 301.058 924.736 303.604 902.115 303.604C880.082 303.604 864.022 299.981 853.936 292.735C843.849 285.39 838.806 274.668 838.806 260.566C838.806 246.465 843.8 235.742 853.789 228.398C863.875 221.053 879.886 217.381 901.821 217.381C923.561 217.381 939.473 221.053 949.56 228.398C959.744 235.742 964.836 246.465 964.836 260.566ZM901.821 237.505C894.868 237.505 889.483 238.484 885.663 240.443C881.942 242.401 879.494 245.437 878.319 249.55H925.323C924.148 245.437 921.651 242.401 917.832 240.443C914.111 238.484 908.774 237.505 901.821 237.505Z" fill="#45159C"/>
<path d="M225.38 136.281L233.784 123.354L244.615 139.051H260.862L257.688 154.932L273.748 166.382L260.862 174.507L270.573 198.329L247.23 191.312L239.2 219.197L225.38 191.312L196.808 202.761L208.76 172.291L185.043 157.518L206.892 149.208L203.904 127.048L225.38 136.281Z" fill="#45159C"/>
<path fill-rule="evenodd" clip-rule="evenodd" d="M194.002 267.263L70.4285 316.754L120.611 194.901L0.307825 134.167L124.052 101.559L92.2321 7.81472L189.531 57.6484L225.183 0.483765L264.583 74.2457L327.029 67.2331L315.531 130.807L377.697 171.936L324.841 203.748L359.394 289.801L281.31 263.351L246.22 370.584L194.011 267.272L194.002 267.263ZM208.89 227.844L136.597 253.004L162.779 181.144L91.8233 143.182L162.94 120.996L141.035 58.6371L204.222 89.4941L228.198 46.807L255.836 98.995L301.759 91.9238L291.948 138.565L337.642 167.822L297.39 189.547L320.522 248.421L266.005 228.154L242.277 293.295L208.881 227.844H208.89Z" fill="#45159C"/>
<path fill-rule="evenodd" clip-rule="evenodd" d="M217.927 201.593L174.959 214.856L189.267 172.252L146.955 148.86L188.543 134.483L174.107 94.4688L214.239 113.228L229.868 83.4681L248.418 118.539L280.451 112.658L272.853 144.889L304.682 164.636L275.911 178.812L290.841 217.327L254.423 203.051L238.879 242.177L217.927 201.584V201.593ZM227.764 174.531L211.812 178.762L216.641 163.061L200.885 154.088L216.019 148.316L210.066 132.338L225.976 139.384L232.355 126.373L240.182 141.136L254.346 138.086L250.599 152.111L264.635 160.481L251.595 166.228L257.625 181.946L242.346 175.645L235.975 190.182L227.756 174.523L227.764 174.531Z" fill="#FDF148"/>
<path d="M200.86 84.3006L226.385 45.0001L259.284 92.7221H308.632L298.99 141.005L347.771 175.814L308.632 200.518L338.128 272.943L267.225 251.608L242.835 336.385L200.86 251.608L114.075 286.417L150.377 193.78L78.3398 148.866L144.705 123.601L135.629 56.2288L200.86 84.3006Z" fill="#FF914C"/>
<path d="M221.163 126.695L230.758 111.922L243.125 129.861H261.675L258.051 148.011L276.388 161.096L261.675 170.382L272.763 197.607L246.11 189.587L236.942 221.455L221.163 189.587L188.54 202.672L202.187 167.849L175.107 150.966L200.054 141.469L196.643 116.143L221.163 126.695Z" fill="#45159C"/>
<path fill-rule="evenodd" clip-rule="evenodd" d="M193.838 267.002L70.3854 316.444L120.519 194.71L0.333351 134.036L123.956 101.46L92.1677 7.80754L189.371 57.5925L224.988 0.483765L264.35 74.1735L326.735 67.1678L315.249 130.68L377.354 171.768L324.549 203.549L359.068 289.518L281.061 263.094L246.005 370.222L193.847 267.011L193.838 267.002ZM208.711 227.621L136.489 252.757L162.645 180.967L91.7593 143.042L162.807 120.878L140.922 58.5802L204.048 89.407L228 46.7617L255.611 98.8986L301.49 91.8343L291.688 138.43L337.337 167.658L297.125 189.362L320.235 248.178L265.771 227.931L242.065 293.008L208.703 227.621H208.711Z" fill="#45159C"/>
<path fill-rule="evenodd" clip-rule="evenodd" d="M217.709 201.399L174.783 214.649L189.078 172.087L146.806 148.718L188.354 134.355L173.932 94.3799L214.025 113.12L229.639 83.39L248.17 118.427L280.172 112.551L272.582 144.751L304.379 164.479L275.637 178.641L290.552 217.118L254.169 202.855L238.641 241.944L217.709 201.391V201.399ZM227.537 174.364L211.6 178.591L216.425 162.905L200.683 153.941L215.803 148.174L209.856 132.212L225.75 139.252L232.123 126.253L239.943 141.001L254.093 137.954L250.349 151.966L264.371 160.327L251.344 166.069L257.368 181.771L242.104 175.477L235.739 189.999L227.528 174.356L227.537 174.364Z" fill="#FDF148"/>
</svg>
