<svg width="1081" height="371" viewBox="0 0 1081 371" fill="none" xmlns="http://www.w3.org/2000/svg">
<path d="M579.177 172.772H541.28V101.384H540.399L510.434 172.772H481.79L451.385 100.503H450.356V172.772H414.516V67.8936H472.683L495.745 126.796H496.773L519.394 67.8936H579.177V172.772Z" fill="#FDF148"/>
<path d="M653.312 89.9268C675.15 89.9268 691.062 93.599 701.051 100.943C711.039 108.19 716.033 118.913 716.033 133.112C716.033 147.213 711.039 157.936 701.051 165.28C691.062 172.527 675.15 176.15 653.312 176.15C631.475 176.15 615.562 172.527 605.574 165.28C595.585 157.936 590.591 147.213 590.591 133.112C590.591 118.913 595.585 108.19 605.574 100.943C615.562 93.599 631.475 89.9268 653.312 89.9268ZM653.312 151.767C669.274 151.767 677.255 145.548 677.255 133.112C677.255 120.577 669.274 114.31 653.312 114.31C637.35 114.31 629.369 120.577 629.369 133.112C629.369 145.548 637.35 151.767 653.312 151.767Z" fill="#FDF148"/>
<path d="M726.486 66.4247H763.795V172.772H726.486V66.4247Z" fill="#FDF148"/>
<path d="M776.405 93.3053H813.714V172.772H776.405V93.3053ZM776.111 65.8372H814.008V84.3451H776.111V65.8372Z" fill="#FDF148"/>
<path d="M901.824 116.66C900.943 113.821 898.837 111.813 895.508 110.638C892.178 109.463 887.429 108.875 881.26 108.875C874.895 108.875 870.439 109.365 867.893 110.344C865.347 111.226 864.074 112.646 864.074 114.604C864.074 116.171 864.808 117.297 866.277 117.982C867.746 118.57 870.439 119.06 874.356 119.451L914.456 122.536C921.801 123.124 927.774 124.299 932.377 126.061C936.979 127.824 940.456 130.517 942.806 134.14C945.254 137.665 946.478 142.513 946.478 148.682C946.478 156.222 944.226 162 939.721 166.015C935.315 169.932 928.754 172.576 920.038 173.947C911.323 175.416 899.523 176.15 884.638 176.15C870.439 176.15 858.982 175.416 850.266 173.947C841.649 172.576 834.892 169.834 829.996 165.721C825.197 161.608 822.602 155.586 822.211 147.654H864.514C865.592 151.179 867.697 153.627 870.831 154.998C874.062 156.271 879.154 156.908 886.107 156.908C893.451 156.908 898.495 156.418 901.237 155.439C903.978 154.362 905.349 152.697 905.349 150.445C905.349 148.682 904.615 147.458 903.146 146.773C901.775 145.989 899.278 145.402 895.655 145.01L858.345 141.485C846.986 140.407 838.515 138.057 832.934 134.434C827.45 130.811 824.708 124.837 824.708 116.514C824.708 109.267 826.911 103.734 831.318 99.9152C835.724 95.9982 841.992 93.3542 850.119 91.9833C858.345 90.6123 868.97 89.9268 881.994 89.9268C895.214 89.9268 906.133 90.6613 914.75 92.1301C923.466 93.5011 930.271 96.1451 935.168 100.062C940.162 103.979 942.806 109.512 943.1 116.66H901.824Z" fill="#FDF148"/>
<path d="M1080.54 133.112C1080.54 135.462 1080.44 138.106 1080.25 141.044H993.438C994.123 146.136 996.375 149.906 1000.19 152.354C1004.11 154.802 1009.99 156.027 1017.82 156.027C1024.87 156.027 1029.91 155.243 1032.95 153.676C1035.99 152.012 1037.94 150.2 1038.83 148.241H1079.51C1078.73 156.663 1073.88 163.42 1064.97 168.512C1056.16 173.604 1040.44 176.15 1017.82 176.15C995.788 176.15 979.728 172.527 969.642 165.28C959.555 157.936 954.512 147.213 954.512 133.112C954.512 119.011 959.506 108.288 969.495 100.943C979.581 93.599 995.592 89.9268 1017.53 89.9268C1039.27 89.9268 1055.18 93.599 1065.27 100.943C1075.45 108.288 1080.54 119.011 1080.54 133.112ZM1017.53 110.051C1010.57 110.051 1005.19 111.03 1001.37 112.988C997.648 114.947 995.2 117.982 994.025 122.095H1041.03C1039.85 117.982 1037.36 114.947 1033.54 112.988C1029.82 111.03 1024.48 110.051 1017.53 110.051Z" fill="#FDF148"/>
<path d="M505.146 195.557C520.52 195.557 531.537 198.543 538.195 204.517C544.854 210.392 548.184 219.548 548.184 231.985C548.184 244.519 544.854 253.724 538.195 259.6C531.537 265.377 520.52 268.266 505.146 268.266H452.413V300.435H414.516V195.557H505.146ZM493.982 243.736C502.404 243.736 506.615 240.113 506.615 232.866C506.615 229.145 505.586 226.403 503.53 224.641C501.473 222.878 498.291 221.997 493.982 221.997H452.413V243.736H493.982Z" fill="#43B66A"/>
<path d="M594.512 220.968V232.132H595.394C600.388 227.529 606.214 224.2 612.873 222.143C619.532 219.989 627.758 218.912 637.55 218.912C640.978 218.912 644.258 219.108 647.392 219.499V253.724C642.006 252.647 636.424 252.109 630.647 252.109C620.267 252.109 611.747 253.822 605.088 257.25C598.527 260.677 595.247 267.238 595.247 276.933V300.435H557.937V220.968H594.512Z" fill="#43B66A"/>
<path d="M656.771 220.968H694.081V300.435H656.771V220.968ZM656.477 193.5H694.374V212.008H656.477V193.5Z" fill="#43B66A"/>
<path d="M791.298 229.928V194.088H828.607V300.435H792.032V291.768H791.151C786.744 295.783 781.701 298.77 776.021 300.729C770.342 302.785 763.585 303.813 755.751 303.813C739.103 303.813 726.373 300.239 717.56 293.09C708.844 285.844 704.487 275.268 704.487 261.363C704.487 247.457 708.844 236.93 717.56 229.782C726.373 222.535 739.103 218.912 755.751 218.912C763.487 218.912 770.097 219.842 775.581 221.703C781.162 223.563 786.108 226.305 790.416 229.928H791.298ZM767.355 279.43C775.874 279.43 782.191 277.863 786.303 274.729C790.416 271.498 792.473 267.042 792.473 261.363C792.473 255.683 790.416 251.276 786.303 248.143C782.191 244.911 775.874 243.295 767.355 243.295C758.933 243.295 752.813 244.813 748.994 247.849C745.175 250.885 743.265 255.389 743.265 261.363C743.265 267.336 745.175 271.841 748.994 274.876C752.813 277.912 758.933 279.43 767.355 279.43Z" fill="#43B66A"/>
<path d="M965.069 260.775C965.069 263.125 964.971 265.769 964.775 268.707H877.964C878.649 273.799 880.902 277.569 884.721 280.017C888.638 282.465 894.513 283.69 902.347 283.69C909.398 283.69 914.441 282.906 917.477 281.339C920.513 279.675 922.471 277.863 923.352 275.904H964.04C963.257 284.326 958.41 291.083 949.498 296.175C940.685 301.267 924.968 303.813 902.347 303.813C880.314 303.813 864.254 300.19 854.168 292.944C844.082 285.599 839.039 274.876 839.039 260.775C839.039 246.674 844.033 235.951 854.021 228.606C864.107 221.262 880.118 217.59 902.054 217.59C923.793 217.59 939.706 221.262 949.792 228.606C959.976 235.951 965.069 246.674 965.069 260.775ZM902.054 237.714C895.101 237.714 889.715 238.693 885.896 240.651C882.175 242.61 879.727 245.646 878.551 249.758H925.556C924.381 245.646 921.884 242.61 918.064 240.651C914.343 238.693 909.006 237.714 902.054 237.714Z" fill="#43B66A"/>
<path d="M225.613 136.49L234.016 123.563L244.848 139.26H261.095L257.92 155.141L273.98 166.591L261.095 174.716L270.806 198.538L247.462 191.521L239.432 219.405L225.613 191.521L197.04 202.97L208.992 172.5L185.275 157.727L207.125 149.416L204.137 127.256L225.613 136.49Z" fill="#43B66A"/>
<path fill-rule="evenodd" clip-rule="evenodd" d="M194.234 267.472L70.6609 316.962L120.843 195.109L0.540247 134.376L124.284 101.767L92.4645 8.02346L189.763 57.8572L225.415 0.692505L264.815 74.4545L327.262 67.4419L315.764 131.016L377.93 172.145L325.073 203.957L359.627 290.01L281.543 263.56L246.452 370.793L194.243 267.481L194.234 267.472ZM209.122 228.053L136.83 253.212L163.011 181.352L92.0557 143.391L163.173 121.205L141.267 58.8458L204.455 89.7028L228.43 47.0158L256.068 99.2038L301.992 92.1325L292.18 138.774L337.874 168.031L297.623 189.756L320.755 248.63L266.237 228.363L242.509 293.503L209.114 228.053H209.122Z" fill="#43B66A"/>
<path fill-rule="evenodd" clip-rule="evenodd" d="M218.16 201.802L175.191 215.064L189.5 172.461L147.187 149.069L188.776 134.692L174.339 94.6775L214.472 113.436L230.1 83.6769L248.651 118.748L280.683 112.867L273.086 145.098L304.914 164.845L276.144 179.021L291.074 217.536L254.655 203.259L239.111 242.386L218.16 201.793V201.802ZM227.997 174.74L212.044 178.971L216.874 163.27L201.117 154.297L216.252 148.524L210.298 132.547L226.208 139.593L232.587 126.582L240.415 141.344L254.578 138.295L250.831 152.32L264.867 160.69L251.827 166.437L257.857 182.155L242.578 175.854L236.207 190.39L227.988 174.732L227.997 174.74Z" fill="#FDF148"/>
<path d="M201.092 84.5093L226.618 45.2089L259.516 92.9308H308.865L299.222 141.214L348.003 176.023L308.865 200.726L338.361 273.151L267.458 251.817L243.067 336.594L201.092 251.817L114.307 286.626L150.61 193.989L78.5723 149.074L144.937 123.81L135.862 56.4376L201.092 84.5093Z" fill="#92542F"/>
<path d="M221.396 126.904L230.991 112.131L243.358 130.07H261.908L258.283 148.22L276.62 161.305L261.908 170.591L272.995 197.815L246.343 189.796L237.174 221.664L221.396 189.796L188.773 202.881L202.419 168.058L175.34 151.174L200.287 141.677L196.875 116.352L221.396 126.904Z" fill="#43B66A"/>
<path fill-rule="evenodd" clip-rule="evenodd" d="M194.07 267.211L70.6179 316.653L120.751 194.919L0.565773 134.245L124.189 101.669L92.4001 8.01628L189.603 57.8012L225.221 0.692505L264.582 74.3823L326.968 67.3766L315.481 130.888L377.586 171.977L324.781 203.758L359.301 289.726L281.293 263.302L246.237 370.43L194.079 267.219L194.07 267.211ZM208.944 227.83L136.722 252.965L162.878 181.176L91.9917 143.251L163.039 121.087L141.155 58.7889L204.281 89.6157L228.233 46.9704L255.844 99.1073L301.722 92.043L291.92 138.639L337.57 167.867L297.357 189.571L320.467 248.387L266.003 228.14L242.298 293.217L208.935 227.83H208.944Z" fill="#43B66A"/>
<path fill-rule="evenodd" clip-rule="evenodd" d="M217.942 201.608L175.015 214.858L189.31 172.296L147.039 148.927L188.587 134.564L174.165 94.5886L214.257 113.329L229.871 83.5988L248.403 118.636L280.404 112.76L272.814 144.959L304.611 164.688L275.869 178.85L290.785 217.327L254.402 203.064L238.873 242.152L217.942 201.599V201.608ZM227.769 174.573L211.833 178.799L216.657 163.114L200.916 154.15L216.036 148.383L210.088 132.421L225.982 139.46L232.355 126.462L240.175 141.21L254.325 138.163L250.581 152.174L264.603 160.536L251.577 166.278L257.601 181.98L242.336 175.686L235.972 190.208L227.761 174.564L227.769 174.573Z" fill="#FDF148"/>
</svg>
