<svg width="1081" height="1078" viewBox="0 0 1081 1078" fill="none" xmlns="http://www.w3.org/2000/svg">
<path d="M574.6 233.698L647.719 121.119L741.96 257.822H883.322L855.699 396.133L995.436 495.846L883.322 566.61L967.814 774.076L764.708 712.962L694.839 955.811L574.6 712.962L325.998 812.675L429.989 547.31L223.633 418.649L413.74 346.277L387.743 153.285L574.6 233.698Z" fill="white"/>
<path d="M632.749 355.148L660.234 312.83L695.66 364.217H748.798L738.415 416.208L790.943 453.691L748.798 480.291L780.559 558.279L704.211 535.306L677.947 626.594L632.749 535.306L539.298 572.788L578.388 473.037L500.818 424.672L572.281 397.467L562.508 324.921L632.749 355.148Z" fill="#47D6FD"/>
<path fill-rule="evenodd" clip-rule="evenodd" d="M554.409 777.038L200.771 921.013L344.381 566.522L0.101605 389.837L354.228 294.974L263.167 22.2565L541.613 167.231L643.641 0.929443L756.394 215.516L935.102 195.115L902.198 380.063L1080.1 499.713L928.838 592.26L1027.72 842.603L804.264 765.655L703.844 1077.61L554.433 777.062L554.409 777.038ZM597.014 662.359L390.13 735.554L465.055 526.5L261.997 416.063L465.518 351.521L402.829 170.108L583.657 259.876L652.269 135.692L731.362 287.516L862.785 266.944L834.707 402.633L965.472 487.746L850.282 550.947L916.481 722.221L760.464 663.261L692.559 852.767L596.99 662.359H597.014Z" fill="#47D6FD"/>
<path fill-rule="evenodd" clip-rule="evenodd" d="M622.827 586.001L499.861 624.584L540.809 500.644L419.72 432.592L538.737 390.767L497.424 274.358L612.273 328.931L656.999 242.355L710.085 344.384L801.754 327.274L780.013 421.039L871.098 478.488L788.763 519.729L831.49 631.775L727.268 590.242L682.786 704.067L622.827 585.976V586.001ZM650.978 507.274L605.326 519.582L619.146 473.906L574.055 447.802L617.367 431.008L600.33 384.527L645.86 405.026L664.116 367.173L686.515 410.12L727.049 401.248L716.324 442.049L756.492 466.399L719.176 483.119L736.433 528.844L692.706 510.515L674.475 552.804L650.954 507.249L650.978 507.274Z" fill="#FC66C5"/>
</svg>
